{
  "accessors": [
    {
      "bufferView": 0,
      "componentType": 5125,
      "count": 375552,
      "type": "SCALAR"
    },
    {
      "bufferView": 1,
      "componentType": 5126,
      "count": 65741,
      "max": [
        20.3877182006836,
        14.880558013916,
        17.7550716400146
      ],
      "min": [
        -10.1542110443115,
        0.433197021484375,
        -10.0101480484009
      ],
      "type": "VEC3"
    },
    {
      "bufferView": 2,
      "componentType": 5126,
      "count": 65741,
      "type": "VEC3"
    },
    {
      "bufferView": 3,
      "componentType": 5126,
      "count": 65741,
      "type": "VEC4"
    },
    {
      "bufferView": 4,
      "componentType": 5126,
      "count": 65741,
      "type": "VEC2"
    },
    {
      "bufferView": 5,
      "componentType": 5125,
      "count": 58080,
      "type": "SCALAR"
    },
    {
      "bufferView": 6,
      "componentType": 5126,
      "count": 9995,
      "max": [
        4.05353212356567,
        18.4795017242432,
        4.05353116989136
      ],
      "min": [
        -4.0535306930542,
        14.6326036453247,
        -4.05353355407715
      ],
      "type": "VEC3"
    },
    {
      "bufferView": 7,
      "componentType": 5126,
      "count": 9995,
      "type": "VEC3"
    },
    {
      "bufferView": 8,
      "componentType": 5126,
      "count": 9995,
      "type": "VEC4"
    },
    {
      "bufferView": 9,
      "componentType": 5126,
      "count": 9995,
      "type": "VEC2"
    }
  ],
  "asset": {
    "generator": "Adobe Substance 3D Painter 8.2.0",
    "version": "2.0"
  },
  "bufferViews": [
    {
      "buffer": 0,
      "byteLength": 1502208,
      "target": 34963
    },
    {
      "buffer": 0,
      "byteLength": 788892,
      "byteOffset": 1502208,
      "target": 34962
    },
    {
      "buffer": 0,
      "byteLength": 788892,
      "byteOffset": 2291100,
      "target": 34962
    },
    {
      "buffer": 0,
      "byteLength": 1051856,
      "byteOffset": 3079992,
      "target": 34962
    },
    {
      "buffer": 0,
      "byteLength": 525928,
      "byteOffset": 4131848,
      "target": 34962
    },
    {
      "buffer": 0,
      "byteLength": 232320,
      "byteOffset": 4657776,
      "target": 34963
    },
    {
      "buffer": 0,
      "byteLength": 119940,
      "byteOffset": 4890096,
      "target": 34962
    },
    {
      "buffer": 0,
      "byteLength": 119940,
      "byteOffset": 5010036,
      "target": 34962
    },
    {
      "buffer": 0,
      "byteLength": 159920,
      "byteOffset": 5129976,
      "target": 34962
    },
    {
      "buffer": 0,
      "byteLength": 79960,
      "byteOffset": 5289896,
      "target": 34962
    }
  ],
  "buffers": [
    {
      "byteLength": 5369856,
      "uri": "smallteapot.bin"
    }
  ],
  "images": [
    {
      "uri": "initialShadingGroup_baseColor.png"
    },
    {
      "uri": "initialShadingGroup_occlusionRoughnessMetallic.png"
    },
    {
      "uri": "initialShadingGroup_normal.png"
    }
  ],
  "materials": [
    {
      "alphaMode": "OPAQUE",
      "name": "initialShadingGroup",
      "normalTexture": {
        "index": 2
      },
      "occlusionTexture": {
        "index": 1
      },
      "pbrMetallicRoughness": {
        "baseColorTexture": {
          "index": 0
        },
        "metallicRoughnessTexture": {
          "index": 1
        }
      }
    }
  ],
  "meshes": [
    {
      "name": "st:group1potsmallb",
      "primitives": [
        {
          "attributes": {
            "NORMAL": 2,
            "POSITION": 1,
            "TANGENT": 3,
            "TEXCOORD_0": 4
          },
          "indices": 0,
          "material": 0,
          "mode": 4
        }
      ]
    },
    {
      "name": "st:potsmalltopgroup1",
      "primitives": [
        {
          "attributes": {
            "NORMAL": 7,
            "POSITION": 6,
            "TANGENT": 8,
            "TEXCOORD_0": 9
          },
          "indices": 5,
          "material": 0,
          "mode": 4
        }
      ]
    }
  ],
  "nodes": [
    {
      "children": [
        1,
        3
      ],
      "name": "st.obj"
    },
    {
      "children": [
        2
      ],
      "name": "st:group1potsmallb"
    },
    {
      "mesh": 0,
      "name": "st:group1potsmallb"
    },
    {
      "children": [
        4
      ],
      "name": "st:potsmalltopgroup1"
    },
    {
      "mesh": 1,
      "name": "st:potsmalltopgroup1"
    }
  ],
  "samplers": [
    {
      "magFilter": 9729,
      "minFilter": 9985,
      "wrapS": 10497,
      "wrapT": 10497
    }
  ],
  "scene": 0,
  "scenes": [
    {
      "name": "Scene",
      "nodes": [
        0
      ]
    }
  ],
  "textures": [
    {
      "sampler": 0,
      "source": 0
    },
    {
      "sampler": 0,
      "source": 1
    },
    {
      "sampler": 0,
      "source": 2
    }
  ]
}